<?xml version="1.0" standalone="no"?><!DOCTYPE svg PUBLIC "-//W3C//DTD SVG 1.1//EN" "http://www.w3.org/Graphics/SVG/1.1/DTD/svg11.dtd"><svg class="icon" width="200px" height="200.00px" viewBox="0 0 1024 1024" version="1.1" xmlns="http://www.w3.org/2000/svg"><path fill="#363636" d="M162.145656 395.525975a142.956876 142.956876 0 0 0 143.827627-141.830021 148.539928 148.539928 0 0 0-41.386297-100.494945 148.539928 148.539928 0 0 0-100.597386-41.386297 140.037298 140.037298 0 0 0-100.341283 41.386297 137.425044 137.425044 0 0 0-45.330288 102.44133 140.088519 140.088519 0 0 0 143.827627 139.883636z m0-234.436984a94.502127 94.502127 0 0 1 94.553348 94.553348 95.885085 95.885085 0 0 1-94.553348 94.553347A94.092362 94.092362 0 0 1 67.592308 255.642339c-1.997606-53.16705 41.386297-94.553348 94.553348-94.553348zM112.768935 255.642339c0 17.72235 9.834368 31.500709 23.612726 41.386297a50.196252 50.196252 0 0 0 47.276674 0 48.096204 48.096204 0 0 0 23.817609-41.386297c0-17.72235-9.885588-31.500709-23.663947-41.386297a50.196252 50.196252 0 0 0-47.276674 0 48.044984 48.044984 0 0 0-23.766388 41.386297z m604.916053 581.149665h-159.296268L303.975677 395.525975C235.032662 470.359366 166.089647 468.412981 128.647341 458.578614c-35.4447-9.885588-78.777383-47.327894-78.777383-47.327895l254.105719 423.594899H144.423306a60.645267 60.645267 0 0 0-63.052639 63.001418v63.052639a62.233108 62.233108 0 0 0 63.052639 63.052639h573.261682a60.696488 60.696488 0 0 0 63.052639-63.052639v-63.052639a62.335549 62.335549 0 0 0-17.72235-45.279067 70.428414 70.428414 0 0 0-45.330289-15.775965z m279.767272-533.872991a31.500709 31.500709 0 0 0-43.332682-7.887983l-151.71561 102.44133-100.597386-118.166074V192.5897l96.499733-114.273303 151.71561 102.44133a31.449488 31.449488 0 0 0 43.742448-7.836762 52.449961 52.449961 0 0 0 5.890376-23.663947 28.376248 28.376248 0 0 0-13.778359-19.719956L800.457583 5.42939a31.55193 31.55193 0 0 0-43.383903 7.887983 24.329816 24.329816 0 0 0-4.046433 19.719956l-96.397291 112.275698h-57.264704a43.435124 43.435124 0 0 0-43.383903 41.386297v-9.834368h-204.88266v1.946385a177.121059 177.121059 0 0 1 15.775965 76.830998 177.121059 177.121059 0 0 1-15.775965 76.830997v1.946386h207.290031v-9.834368a42.052166 42.052166 0 0 0 43.332683 41.386297h59.108647a41.642401 41.642401 0 0 0 25.610333-9.834367l72.887006 84.667759a39.593574 39.593574 0 0 0 5.890376 21.666341 31.398268 31.398268 0 0 0 43.332683 7.887982l183.216319-122.110065a33.549536 33.549536 0 0 0 13.829579-19.719956 39.747236 39.747236 0 0 0-7.887982-25.610332z" /></svg>