<?xml version="1.0" standalone="no"?><!DOCTYPE svg PUBLIC "-//W3C//DTD SVG 1.1//EN" "http://www.w3.org/Graphics/SVG/1.1/DTD/svg11.dtd"><svg class="icon" width="200px" height="200.00px" viewBox="0 0 1024 1024" version="1.1" xmlns="http://www.w3.org/2000/svg"><path d="M149.577143 397.604571c81.554286 0.365714 148.041143-62.610286 148.48-140.8a138.752 138.752 0 0 0-43.812572-99.913142 151.04 151.04 0 0 0-104.594285-40.96 151.04 151.04 0 0 0-104.813715 40.96 138.752 138.752 0 0 0-43.885714 99.913142C1.462857 334.994286 68.022857 398.043429 149.650286 397.604571z m0-234.788571c54.637714 0 98.889143 42.057143 98.889143 93.988571 0 51.785143-44.251429 93.842286-98.889143 93.842286-26.112 0.146286-51.2-9.654857-69.778286-27.282286a92.525714 92.525714 0 0 1-29.257143-66.56c0-51.931429 44.397714-93.988571 99.035429-93.988571z" fill="#8A8A8A" /><path d="M100.205714 256.731429c0 25.965714 22.089143 46.884571 49.371429 46.884571 27.282286 0 49.444571-20.918857 49.444571-46.811429 0-25.892571-22.162286-46.884571-49.444571-46.884571-27.282286 0-49.444571 20.992-49.444572 46.811429zM727.771429 835.730286H561.883429l-263.899429-438.125715c-72.704 74.532571-143.579429 71.972571-181.540571 62.610286C78.701714 450.998857 34.157714 413.257143 34.157714 413.257143l264.045715 422.473143H132.388571c-36.059429 0-65.316571 28.086857-65.316571 62.610285v62.537143c0 34.596571 29.257143 62.610286 65.316571 62.610286h595.382858c17.261714 0 33.938286-6.582857 46.226285-18.285714a61.293714 61.293714 0 0 0 19.163429-44.324572v-62.537143a61.293714 61.293714 0 0 0-19.163429-44.324571 66.779429 66.779429 0 0 0-46.299428-18.285714z m290.596571-531.236572a33.865143 33.865143 0 0 0-45.714286-8.265143l-156.964571 101.376-105.033143-117.906285V192.731429l100.937143-113.078858 157.842286 101.814858a34.304 34.304 0 0 0 45.860571-8.265143 30.134857 30.134857 0 0 0 5.046857-23.552 31.158857 31.158857 0 0 0-13.897143-19.968L815.396571 6.436571A34.304 34.304 0 0 0 769.462857 14.628571a29.110857 29.110857 0 0 0-5.046857 20.772572L664.868571 147.309714H605.622857a42.861714 42.861714 0 0 0-43.739428 41.691429v-10.459429h-214.308572v1.609143c10.166857 19.748571 16.384 46.811429 16.384 76.653714 0 29.769143-6.290286 56.832-16.457143 76.580572v1.609143h214.308572v-10.532572c0 23.04 19.748571 41.837714 43.812571 41.837715h61.44a44.617143 44.617143 0 0 0 26.697143-8.996572l75.117714 84.260572c-0.950857 7.314286 0.877714 14.628571 5.12 20.626285 10.313143 14.262857 30.72 17.92 45.714286 8.192l189.805714-122.660571a30.866286 30.866286 0 0 0 13.824-19.821714 29.915429 29.915429 0 0 0-5.12-23.405715z" fill="#8A8A8A" /></svg>